<svg width="14" height="14" viewBox="0 0 14 14" fill="none" xmlns="http://www.w3.org/2000/svg">
<path d="M7 14C5.13023 14 3.37239 13.2719 2.05023 11.9498C0.728137 10.6276 0 8.86977 0 7C0 5.13023 0.728137 3.37239 2.05023 2.05023C3.37239 0.728137 5.13023 0 7 0C8.86977 0 10.6276 0.728137 11.9498 2.05023C13.2719 3.37239 14 5.13023 14 7C14 8.86977 13.2719 10.6276 11.9498 11.9498C10.6276 13.2719 8.86977 14 7 14ZM7 0.820312C5.34934 0.820312 3.7975 1.46311 2.6303 2.6303C1.46311 3.7975 0.820312 5.34934 0.820312 7C0.820312 8.65066 1.46311 10.2025 2.6303 11.3697C3.7975 12.5369 5.34934 13.1797 7 13.1797C8.65066 13.1797 10.2025 12.5369 11.3697 11.3697C12.5369 10.2025 13.1797 8.65066 13.1797 7C13.1797 5.34934 12.5369 3.7975 11.3697 2.6303C10.2025 1.46311 8.65066 0.820312 7 0.820312Z" fill="#5D5D5D"/>
<path d="M6.58984 1.6416H7.41016V2.73623H6.58984V1.6416Z" fill="#5D5D5D"/>
<path d="M9.72369 3.69574L10.4976 2.92184L11.0776 3.5018L10.3037 4.2757L9.72369 3.69574Z" fill="#5D5D5D"/>
<path d="M11.2641 6.58984H12.3587V7.41016H11.2641V6.58984Z" fill="#5D5D5D"/>
<path d="M9.72275 10.305L10.3027 9.725L11.0766 10.4989L10.4967 11.0789L9.72275 10.305Z" fill="#5D5D5D"/>
<path d="M6.58984 11.2638H7.41016V12.3584H6.58984V11.2638Z" fill="#5D5D5D"/>
<path d="M2.91986 10.4982L3.69376 9.72427L4.27373 10.3042L3.49982 11.0781L2.91986 10.4982Z" fill="#5D5D5D"/>
<path d="M1.64149 6.58984H2.73612V7.41016H1.64149V6.58984Z" fill="#5D5D5D"/>
<path d="M2.91998 3.50107L3.49994 2.92111L4.27384 3.69501L3.69388 4.27497L2.91998 3.50107Z" fill="#5D5D5D"/>
<path d="M9.89548 7.41016H6.58984V4.10452H7.41016V6.58985H9.89548V7.41016Z" fill="#5D5D5D"/>
</svg>
