<svg width="20" height="20" viewBox="0 0 20 20" fill="none" xmlns="http://www.w3.org/2000/svg">
<path d="M18.8978 11.1429L16.2243 4.81633C16.1019 4.14286 15.7346 3.57143 15.1631 3.18367C14.5917 2.79592 13.9182 2.63265 13.2448 2.7551C12.5713 2.87755 11.9795 3.2449 11.5917 3.81633C11.3468 4.18367 11.1835 4.59184 11.1427 5.02041H8.857C8.81619 4.59184 8.65292 4.18367 8.40802 3.81633C8.02027 3.2449 7.42843 2.87755 6.75496 2.7551C5.36721 2.5102 4.04068 3.44898 3.79578 4.81633L1.12231 11.1429C0.775371 11.7551 0.571289 12.449 0.571289 13.1837C0.571289 15.449 2.40802 17.2857 4.67333 17.2857C6.93864 17.2857 8.77537 15.449 8.77537 13.1837C8.77537 13.0204 8.77537 12.8776 8.75496 12.7347V12.102H11.2856V12.7347C11.2652 12.8776 11.2652 13.0408 11.2652 13.1837C11.2652 15.449 13.1019 17.2857 15.3672 17.2857C17.6325 17.2857 19.4692 15.449 19.4692 13.1837C19.4488 12.449 19.2448 11.7551 18.8978 11.1429ZM12.6121 4.5102C12.8162 4.22449 13.1223 4.02041 13.4692 3.95918C13.8162 3.89796 14.1835 3.97959 14.4692 4.18367C14.7346 4.36735 14.9182 4.63265 14.9999 4.91837C14.9999 5 15.0203 5.08163 15.0407 5.16326L16.8162 9.36735C16.3672 9.18367 15.857 9.08163 15.3468 9.08163C14.2243 9.08163 13.2039 9.53061 12.4488 10.2653L12.3876 5.59184C12.3876 5.55102 12.3876 5.53061 12.3876 5.48979C12.3264 5.16326 12.408 4.79592 12.6121 4.5102ZM11.1631 6.22449L11.2039 8.7551H8.79578L8.83659 6.22449H11.1631ZM4.95904 5.16326C4.99986 5.08163 4.99986 5 4.99986 4.91837C5.18353 4.26531 5.8366 3.83673 6.53047 3.95918C6.87741 4.02041 7.18353 4.22449 7.38762 4.5102C7.5917 4.79592 7.67333 5.16326 7.6121 5.5102C7.6121 5.55102 7.6121 5.57143 7.6121 5.61224L7.55088 10.2857C6.81619 9.55102 5.79578 9.10204 4.65292 9.10204C4.14272 9.10204 3.63251 9.20408 3.18353 9.38775L4.95904 5.16326ZM4.65292 16.0612C3.06108 16.0612 1.77537 14.7755 1.77537 13.1837C1.77537 12.9388 1.81619 12.6939 1.87741 12.449C1.87741 12.4286 1.89782 12.4286 1.89782 12.4082L2.20394 11.6735C2.71415 10.8571 3.61211 10.2857 4.65292 10.2857C6.1019 10.2857 7.32639 11.3673 7.51006 12.7959L7.48966 13.6327C7.26517 15.0204 6.08149 16.0612 4.65292 16.0612ZM8.75496 10.8775L8.77537 9.97959H11.2243L11.2448 10.8775H8.75496ZM15.3468 16.0612C13.9182 16.0612 12.7346 15.0204 12.5101 13.6531L12.4897 12.8163C12.6733 11.4082 13.8774 10.3265 15.3468 10.3265C16.3876 10.3265 17.2856 10.8776 17.7958 11.7143L18.1019 12.449C18.1019 12.4694 18.1223 12.4694 18.1223 12.4898C18.1835 12.7143 18.2243 12.9592 18.2243 13.2245C18.2243 14.7755 16.9386 16.0612 15.3468 16.0612Z" fill="url(#paint0_linear)"/>
<defs>
<linearGradient id="paint0_linear" x1="9.99986" y1="2.70986" x2="9.99986" y2="17.2901" gradientUnits="userSpaceOnUse">
<stop stop-color="#4389A2"/>
<stop offset="1" stop-color="#5C258D"/>
</linearGradient>
</defs>
</svg>
