<svg width="23" height="20" viewBox="0 0 23 20" fill="none" xmlns="http://www.w3.org/2000/svg">
<path d="M21.7329 8.2449L18.2829 5.67347V1.87755C18.2829 1.53061 17.9778 1.26531 17.5788 1.26531H14.9972C14.5982 1.26531 14.2931 1.53061 14.2931 1.87755V2.71429L11.9227 0.959183C11.6645 0.755101 11.2655 0.755101 11.0074 0.959183L1.22064 8.2449C1.07982 8.34694 0.985942 8.5102 0.985942 8.65306C0.962473 8.81633 1.03288 8.97959 1.15023 9.10204L3.09819 11.0816C3.35635 11.3469 3.80227 11.3673 4.0839 11.1429L4.22472 11.0408V18.5918C4.22472 18.9388 4.52982 19.2041 4.9288 19.2041H18.0717C18.4706 19.2041 18.7757 18.9388 18.7757 18.5918V11.0408L18.9166 11.1429C19.0574 11.2449 19.2217 11.2857 19.3625 11.2857C19.5502 11.2857 19.7615 11.2041 19.9023 11.0816L21.8502 9.10204C21.9676 8.97959 22.038 8.81633 22.0145 8.65306C21.9676 8.5102 21.8972 8.34694 21.7329 8.2449ZM15.7012 2.4898H16.8747V4.63265L15.7012 3.7551V2.4898ZM12.7676 18H10.1859V14.3265H12.7676V18ZM17.3441 10.0408V18H14.1757V13.7143C14.1757 13.3673 13.8706 13.102 13.4717 13.102H9.48186C9.08288 13.102 8.77778 13.3673 8.77778 13.7143V18H5.60941V10.0408H5.58594L11.4768 5.67347L17.3441 10.0408ZM19.2686 9.83673L11.9227 4.40816C11.7819 4.30612 11.6176 4.26531 11.4768 4.26531C11.3359 4.26531 11.1482 4.30612 11.0308 4.40816L3.68492 9.83673L2.65227 8.79592L11.4768 2.22449L20.3012 8.77551L19.2686 9.83673Z" fill="url(#paint0_linear)"/>
<defs>
<linearGradient id="paint0_linear" x1="11.5002" y1="0.80102" x2="11.5002" y2="19.199" gradientUnits="userSpaceOnUse">
<stop stop-color="#4389A2"/>
<stop offset="1" stop-color="#5C258D"/>
</linearGradient>
</defs>
</svg>
