<svg width="20" height="20" viewBox="0 0 20 20" fill="none" xmlns="http://www.w3.org/2000/svg">
<path d="M19.3023 1.68608H0.697654C0.302333 1.68608 0 1.98837 0 2.38373V17.6163C0 18.0117 0.302333 18.3139 0.697654 18.3139H19.3023C19.6977 18.3139 20 18.0116 20 17.6163V2.38373C20 2.01165 19.6977 1.68608 19.3023 1.68608ZM18.6046 3.08139V12.7093L13.7675 10.5C13.5349 10.407 13.2791 10.4303 13.0698 10.5698L8.83723 13.6395L1.39535 9.7791V3.08139H18.6046ZM1.39535 11.3605L7.55815 14.5698L4.25581 16.9419H1.39535V11.3605ZM6.65115 16.9419L13.5581 11.9884L18.6046 14.2674V16.9419H6.65115Z" fill="url(#paint0_linear)"/>
<path d="M7.46437 9.91861C8.88296 9.91861 10.0225 8.77908 10.0225 7.36049C10.0225 5.9419 8.88296 4.80237 7.46437 4.80237C6.04578 4.80237 4.90625 5.9419 4.90625 7.36049C4.90625 8.77908 6.04578 9.91861 7.46437 9.91861ZM7.46437 6.19772C8.11555 6.19772 8.62714 6.70935 8.62714 7.36049C8.62714 8.01167 8.11551 8.52326 7.46437 8.52326C6.81319 8.52326 6.3016 8.01163 6.3016 7.36049C6.3016 6.70935 6.81324 6.19772 7.46437 6.19772Z" fill="url(#paint1_linear)"/>
<defs>
<linearGradient id="paint0_linear" x1="10" y1="0.127646" x2="10" y2="18.7324" gradientUnits="userSpaceOnUse">
<stop stop-color="#4389A2"/>
<stop offset="1" stop-color="#5C258D"/>
</linearGradient>
<linearGradient id="paint1_linear" x1="7.46437" y1="0.127661" x2="7.46437" y2="18.7324" gradientUnits="userSpaceOnUse">
<stop stop-color="#4389A2"/>
<stop offset="1" stop-color="#5C258D"/>
</linearGradient>
</defs>
</svg>
