<svg width="20" height="20" viewBox="0 0 20 20" fill="none" xmlns="http://www.w3.org/2000/svg">
<path d="M11.8679 9.6683C11.8679 9.3508 11.8338 9.04112 11.7696 8.74248C12.0205 8.78701 12.2786 8.81034 12.542 8.81034C14.4591 8.81034 16.1649 9.73006 17.2432 11.1508L18.3022 9.97166C17.5194 9.02174 16.5066 8.26838 15.3501 7.7967C16.3251 6.98803 16.9472 5.76791 16.9472 4.40518C16.9472 1.97623 14.971 6.10352e-05 12.542 6.10352e-05C10.113 6.10352e-05 8.13684 1.97623 8.13684 4.40522C8.13684 4.72272 8.1709 5.03237 8.23504 5.331C7.98422 5.28647 7.72613 5.26315 7.4627 5.26315C5.03367 5.26315 3.05754 7.23932 3.05754 9.6683C3.05754 11.0309 3.67953 12.2509 4.65438 13.0596C1.9273 14.1714 0 16.8513 0 19.9733H1.56285C1.56285 16.7201 4.20949 14.0735 7.46266 14.0735C9.89168 14.0735 11.8679 12.0973 11.8679 9.6683ZM12.542 1.56291C14.1092 1.56291 15.3843 2.83795 15.3843 4.40522C15.3843 5.97248 14.1092 7.24748 12.542 7.24748C10.9748 7.24748 9.69969 5.97244 9.69969 4.40518C9.69969 2.83791 10.9748 1.56291 12.542 1.56291ZM7.4627 12.5106C5.89547 12.5106 4.62039 11.2356 4.62039 9.6683C4.62039 8.10104 5.89547 6.826 7.4627 6.826C9.02992 6.826 10.305 8.10108 10.305 9.6683C10.305 11.2355 9.02992 12.5106 7.4627 12.5106ZM20 12.7593L13.4968 19.9999L9.26824 15.9747L10.3457 14.8427L13.409 17.7586L18.8372 11.7149L20 12.7593Z" fill="url(#paint0_linear)"/>
<defs>
<linearGradient id="paint0_linear" x1="9.99966" y1="0.000748296" x2="9.99966" y2="19.9999" gradientUnits="userSpaceOnUse">
<stop stop-color="#4389A2"/>
<stop offset="0.9999" stop-color="#5C258D"/>
<stop offset="1" stop-color="#009EFD"/>
</linearGradient>
</defs>
</svg>
