<svg width="20" height="20" viewBox="0 0 20 20" fill="none" xmlns="http://www.w3.org/2000/svg">
<path d="M7.40325 0.72113H5.96094V19.2788H7.40325V0.72113Z" fill="url(#paint0_linear)"/>
<path d="M18.1012 0H3.77434C2.957 0 2.33203 0.625014 2.33203 1.44231V2.59617H1.17816C0.769492 2.59617 0.457031 2.90868 0.457031 3.31731C0.457031 3.72593 0.769492 4.03844 1.17816 4.03844H2.33203V5.93745H1.17816C0.769492 5.93745 0.457031 6.24996 0.457031 6.65858C0.457031 7.06725 0.769538 7.37971 1.17816 7.37971H2.33203V9.27873H1.17816C0.769492 9.27873 0.457031 9.59124 0.457031 9.99986C0.457031 10.4085 0.769538 10.721 1.17816 10.721H2.33203V12.62H1.17816C0.769492 12.62 0.457031 12.9325 0.457031 13.3411C0.457031 13.7498 0.769538 14.0623 1.17816 14.0623H2.33203V15.9613H1.17816C0.769492 15.9613 0.457031 16.2738 0.457031 16.6824C0.457031 17.0911 0.769538 17.4035 1.17816 17.4035H2.33203V18.5574C2.33203 19.3747 2.95704 19.9997 3.77434 19.9997H18.1013C18.9186 19.9997 19.5436 19.3747 19.5436 18.5574V1.44231C19.5435 0.625014 18.9185 0 18.1012 0ZM18.1012 18.5577H3.77434V16.6827C3.77434 16.6827 3.77434 16.6827 3.77434 16.6587V13.3654V13.3414V13.3174V10.0721C3.77434 10.0481 3.77434 10.0481 3.77434 10.0241C3.77434 10 3.77434 9.97598 3.77434 9.97598V6.75484C3.77434 6.73082 3.77434 6.70676 3.77434 6.68274C3.77434 6.65872 3.77434 6.63466 3.77434 6.61064V3.43749C3.77434 3.41347 3.77434 3.36539 3.77434 3.34132C3.77434 3.31731 3.77434 3.26922 3.77434 3.24516V1.46633H18.1013V18.5577H18.1012Z" fill="url(#paint1_linear)"/>
<defs>
<linearGradient id="paint0_linear" x1="6.68209" y1="0.72113" x2="6.68209" y2="19.2788" gradientUnits="userSpaceOnUse">
<stop stop-color="#4389A2"/>
<stop offset="1" stop-color="#5C258D"/>
</linearGradient>
<linearGradient id="paint1_linear" x1="10.0003" y1="0" x2="10.0003" y2="19.9997" gradientUnits="userSpaceOnUse">
<stop stop-color="#4389A2"/>
<stop offset="1" stop-color="#5C258D"/>
</linearGradient>
</defs>
</svg>
